<svg width="241" height="235" viewBox="0 0 241 235" fill="none" xmlns="http://www.w3.org/2000/svg">
<path d="M120.695 234.193C183.144 234.193 233.769 183.451 233.769 120.857C233.769 58.2629 183.144 7.52051 120.695 7.52051C58.2453 7.52051 7.62012 58.2629 7.62012 120.857C7.62012 183.451 58.2453 234.193 120.695 234.193Z" fill="url(#paint0_linear_1748_378)"/>
<path d="M62.4142 226.137C63.3376 226.6 64.4201 226.695 65.4071 226.376C66.3941 226.057 67.2378 225.387 67.7313 224.461C68.2248 223.552 68.3521 222.467 68.0815 221.478C67.8109 220.472 67.1423 219.611 66.2508 219.084C62.0003 216.755 57.925 214.138 54.0407 211.25C34.6511 196.873 20.4033 176.609 13.4148 153.457C6.4262 130.304 7.07889 105.525 15.2773 82.7871C23.4757 60.0497 38.7741 40.5673 58.8961 27.2279C79.018 13.9046 102.913 7.44237 126.999 8.79864C151.085 10.1549 174.088 19.2818 192.586 34.7911C211.084 50.3005 224.106 71.3945 229.694 94.9138C235.281 118.433 233.148 143.133 223.613 165.344C214.077 187.555 197.632 206.08 176.746 218.175C175.839 218.717 175.17 219.579 174.9 220.616C174.629 221.637 174.772 222.738 175.298 223.648C175.823 224.573 176.699 225.243 177.717 225.515C178.736 225.786 179.835 225.658 180.742 225.132C203.156 212.175 220.795 192.31 231.031 168.487C241.267 144.681 243.575 118.178 237.59 92.9512C231.604 67.7245 217.659 45.0988 197.808 28.4566C177.956 11.8463 153.281 2.06517 127.46 0.597203C101.623 -0.870759 76.0093 6.07015 54.4387 20.3668C32.8522 34.6635 16.4553 55.566 7.6679 79.9629C-1.11953 104.36 -1.80405 130.943 5.69392 155.754C13.1919 180.566 28.4903 202.298 49.2968 217.712C53.4835 220.823 57.8773 223.632 62.4302 226.137H62.4142Z" fill="#5C62E4"/>
<path d="M120.679 122.741C140.584 122.741 156.72 106.568 156.72 86.6168C156.72 66.6657 140.584 50.4922 120.679 50.4922C100.774 50.4922 84.6377 66.6657 84.6377 86.6168C84.6377 106.568 100.774 122.741 120.679 122.741Z" fill="#EBEEFF"/>
<path d="M138.269 121.623C157.675 111.507 165.427 88.179 156.115 68.7285C146.022 49.278 122.748 41.5074 103.342 50.8417C83.9367 60.1761 75.404 84.2857 85.4968 103.736C89.3811 111.507 95.5896 117.73 103.342 121.623C83.9367 125.516 66.0912 136.398 52.9101 151.956C48.2617 158.178 48.2617 165.949 53.6901 172.172C87.0569 209.509 145.258 212.621 181.729 178.395C184.053 176.065 186.377 174.502 187.937 172.172C192.586 166.731 193.366 158.178 188.717 151.956C175.52 136.398 157.675 125.516 138.285 121.623H138.269ZM87.0569 86.6153C87.0569 67.9467 101.798 53.1713 120.424 53.1713C139.049 53.1713 153.79 67.9467 153.79 86.6153C153.79 105.284 139.049 120.059 120.424 120.059C101.798 120.059 87.0569 104.502 87.0569 86.6153ZM183.273 167.513C151.45 202.521 97.9138 204.85 63.767 173.736C61.4428 172.188 59.8827 169.842 57.5585 167.513C54.4543 164.401 54.4543 158.96 57.5585 155.849C86.2769 120.841 137.489 116.182 172.4 144.967C176.284 148.078 180.153 151.972 183.257 155.849C186.361 158.96 186.361 164.401 183.257 167.513H183.273Z" fill="#5C62E4"/>
<path d="M183.528 167.515C151.705 202.523 98.1689 204.852 64.0221 173.738C61.6978 172.19 60.1378 169.845 57.8135 167.515C54.7093 164.404 54.7093 158.963 57.8135 155.851C86.5319 120.844 137.744 116.184 172.655 144.969C176.539 148.081 180.408 151.974 183.512 155.851C186.616 158.963 186.616 164.404 183.512 167.515H183.528Z" fill="#EBEEFF"/>
<defs>
<linearGradient id="paint0_linear_1748_378" x1="120.695" y1="7.52051" x2="120.695" y2="234.193" gradientUnits="userSpaceOnUse">
<stop stop-color="white"/>
<stop offset="0.65625" stop-color="#EBEEFF"/>
</linearGradient>
</defs>
</svg>
